HIERARCHY
ROOT Hips
{
  OFFSET -615.852 92.7214 1114.02
  CHANNELS 6 Xposition Yposition Zposition Zrotation Xrotation Yrotation
  JOINT Spine
  {
    OFFSET 0 8 7.28567e-05
    CHANNELS 6 Xposition Yposition Zposition Zrotation Xrotation Yrotation
    JOINT Spine1
    {
      OFFSET 1.06e-05 8 -0.000350754
      CHANNELS 6 Xposition Yposition Zposition Zrotation Xrotation Yrotation
      JOINT Spine2
      {
        OFFSET -0.000926946 8 0.00018029
        CHANNELS 6 Xposition Yposition Zposition Zrotation Xrotation Yrotation
        JOINT Spine3
        {
          OFFSET 0 8 0
          CHANNELS 6 Xposition Yposition Zposition Zrotation Xrotation Yrotation
          JOINT Neck
          {
            OFFSET 0.00052732 17 8.76513e-05
            CHANNELS 6 Xposition Yposition Zposition Zrotation Xrotation Yrotation
            JOINT Head
            {
              OFFSET 0.000116467 10.8 -5.51945e-05
              CHANNELS 6 Xposition Yposition Zposition Zrotation Xrotation Yrotation
              End Site
              {
                OFFSET 0 20.25 0
              }
            }
          }
          JOINT LeftShoulder
          {
            OFFSET 5.00051 16.9998 -0.000380758
            CHANNELS 6 Xposition Yposition Zposition Zrotation Xrotation Yrotation
            JOINT LeftShoulder2
            {
              OFFSET 6.45 0 0
              CHANNELS 6 Xposition Yposition Zposition Zrotation Xrotation Yrotation
              JOINT LeftArm
              {
                OFFSET 6.45008 7.94969e-05 -0.000367088
                CHANNELS 6 Xposition Yposition Zposition Zrotation Xrotation Yrotation
                JOINT LeftForeArm
                {
                  OFFSET 8.62098e-05 -32.4001 -1.99993
                  CHANNELS 6 Xposition Yposition Zposition Zrotation Xrotation Yrotation
                  JOINT LeftHand
                  {
                    OFFSET -0.0001279 -25.65 1.9999
                    CHANNELS 6 Xposition Yposition Zposition Zrotation Xrotation Yrotation
                    JOINT LeftHandThumb1
                    {
                      OFFSET -0.500674 -1.49678 2.65057
                      CHANNELS 6 Xposition Yposition Zposition Zrotation Xrotation Yrotation
                      JOINT LeftHandThumb2
                      {
                        OFFSET 0.000361092 -3.80001 3.70005
                        CHANNELS 6 Xposition Yposition Zposition Zrotation Xrotation Yrotation
                        JOINT LeftHandThumb3
                        {
                          OFFSET 0.000190868 -3.00065 2.69958
                          CHANNELS 6 Xposition Yposition Zposition Zrotation Xrotation Yrotation
                          End Site
                          {
                            OFFSET -7.02421e-05 -2.30006 1.80004
                          }
                        }
                      }
                    }
                    JOINT LeftHandIndex
                    {
                      OFFSET -4.67865e-05 -1.89985 1.60006
                      CHANNELS 6 Xposition Yposition Zposition Zrotation Xrotation Yrotation
                      JOINT LeftHandIndex1
                      {
                        OFFSET 0.00130873 -8.30463 1.89871
                        CHANNELS 6 Xposition Yposition Zposition Zrotation Xrotation Yrotation
                        JOINT LeftHandIndex2
                        {
                          OFFSET -0.000153594 -4.49864 -0.000417717
                          CHANNELS 6 Xposition Yposition Zposition Zrotation Xrotation Yrotation
                          JOINT LeftHandIndex3
                          {
                            OFFSET -0.000738565 -3.39939 -0.000400009
                            CHANNELS 6 Xposition Yposition Zposition Zrotation Xrotation Yrotation
                            End Site
                            {
                              OFFSET 9.81053e-05 -2.60003 0
                            }
                          }
                        }
                      }
                    }
                    JOINT LeftHandMiddle
                    {
                      OFFSET -0.250745 -2.19714 0.400896
                      CHANNELS 6 Xposition Yposition Zposition Zrotation Xrotation Yrotation
                      JOINT LeftHandMiddle1
                      {
                        OFFSET -0.000773875 -8.30013 1.00025
                        CHANNELS 6 Xposition Yposition Zposition Zrotation Xrotation Yrotation
                        JOINT LeftHandMiddle2
                        {
                          OFFSET 0.000138778 -4.64633 0.00139065
                          CHANNELS 6 Xposition Yposition Zposition Zrotation Xrotation Yrotation
                          JOINT LeftHandMiddle3
                          {
                            OFFSET -0.000309553 -3.3014 3.45812e-05
                            CHANNELS 6 Xposition Yposition Zposition Zrotation Xrotation Yrotation
                            End Site
                            {
                              OFFSET 0.00106852 -2.69888 0.000515586
                            }
                          }
                        }
                      }
                    }
                    JOINT LeftHandRing
                    {
                      OFFSET -0.500824 -2.14654 -0.79897
                      CHANNELS 6 Xposition Yposition Zposition Zrotation Xrotation Yrotation
                      JOINT LeftHandRing1
                      {
                        OFFSET 4.72231e-05 -7.75005 -0.19996
                        CHANNELS 6 Xposition Yposition Zposition Zrotation Xrotation Yrotation
                        JOINT LeftHandRing2
                        {
                          OFFSET 0.000459018 -3.80026 -0.000353602
                          CHANNELS 6 Xposition Yposition Zposition Zrotation Xrotation Yrotation
                          JOINT LeftHandRing3
                          {
                            OFFSET -0.00022998 -3.39766 -0.00045283
                            CHANNELS 6 Xposition Yposition Zposition Zrotation Xrotation Yrotation
                            End Site
                            {
                              OFFSET -0.00150214 -2.59829 -0.00123165
                            }
                          }
                        }
                      }
                    }
                    JOINT LeftHandPinky
                    {
                      OFFSET -0.750735 -1.75126 -1.85107
                      CHANNELS 6 Xposition Yposition Zposition Zrotation Xrotation Yrotation
                      JOINT LeftHandPinky1
                      {
                        OFFSET 0.000447484 -7.15052 -1.00029
                        CHANNELS 6 Xposition Yposition Zposition Zrotation Xrotation Yrotation
                        JOINT LeftHandPinky2
                        {
                          OFFSET 0.00113635 -2.99701 -0.000254484
                          CHANNELS 6 Xposition Yposition Zposition Zrotation Xrotation Yrotation
                          JOINT LeftHandPinky3
                          {
                            OFFSET 3.0749e-05 -2.3491 -0.00134328
                            CHANNELS 6 Xposition Yposition Zposition Zrotation Xrotation Yrotation
                            End Site
                            {
                              OFFSET 0.000162764 -2.09981 -2.71424e-05
                            }
                          }
                        }
                      }
                    }
                  }
                }
              }
            }
          }
          JOINT RightShoulder
          {
            OFFSET -4.99951 17.0002 0.000671423
            CHANNELS 6 Xposition Yposition Zposition Zrotation Xrotation Yrotation
            JOINT RightShoulder2
            {
              OFFSET -6.45 0 0
              CHANNELS 6 Xposition Yposition Zposition Zrotation Xrotation Yrotation
              JOINT RightArm
              {
                OFFSET -6.44992 -0.000148045 0.000841096
                CHANNELS 6 Xposition Yposition Zposition Zrotation Xrotation Yrotation
                JOINT RightForeArm
                {
                  OFFSET 0 -32.3999 -1.99993
                  CHANNELS 6 Xposition Yposition Zposition Zrotation Xrotation Yrotation
                  JOINT RightHand
                  {
                    OFFSET 1.604e-05 -25.6499 2.00005
                    CHANNELS 6 Xposition Yposition Zposition Zrotation Xrotation Yrotation
                    JOINT RightHandThumb1
                    {
                      OFFSET 0.499322 -1.49951 2.64979
                      CHANNELS 6 Xposition Yposition Zposition Zrotation Xrotation Yrotation
                      JOINT RightHandThumb2
                      {
                        OFFSET 1.45224e-05 -3.8 3.69997
                        CHANNELS 6 Xposition Yposition Zposition Zrotation Xrotation Yrotation
                        JOINT RightHandThumb3
                        {
                          OFFSET -6.86138e-05 -3.00001 2.7
                          CHANNELS 6 Xposition Yposition Zposition Zrotation Xrotation Yrotation
                          End Site
                          {
                            OFFSET -0.000311922 -2.30014 1.79985
                          }
                        }
                      }
                    }
                    JOINT RightHandIndex
                    {
                      OFFSET -0.000764902 -1.8994 1.60035
                      CHANNELS 6 Xposition Yposition Zposition Zrotation Xrotation Yrotation
                      JOINT RightHandIndex1
                      {
                        OFFSET -0.000118756 -8.29994 1.89952
                        CHANNELS 6 Xposition Yposition Zposition Zrotation Xrotation Yrotation
                        JOINT RightHandIndex2
                        {
                          OFFSET 0.000161633 -4.50022 0.000512107
                          CHANNELS 6 Xposition Yposition Zposition Zrotation Xrotation Yrotation
                          JOINT RightHandIndex3
                          {
                            OFFSET 2.3644e-05 -3.39996 3.68734e-05
                            CHANNELS 6 Xposition Yposition Zposition Zrotation Xrotation Yrotation
                            End Site
                            {
                              OFFSET -5.02736e-05 -2.6001 -4.13943e-05
                            }
                          }
                        }
                      }
                    }
                    JOINT RightHandMiddle
                    {
                      OFFSET 0.251127 -2.20095 0.399338
                      CHANNELS 6 Xposition Yposition Zposition Zrotation Xrotation Yrotation
                      JOINT RightHandMiddle1
                      {
                        OFFSET -0.000560731 -8.29964 0.999898
                        CHANNELS 6 Xposition Yposition Zposition Zrotation Xrotation Yrotation
                        JOINT RightHandMiddle2
                        {
                          OFFSET 0.0010609 -4.65105 -3.99011e-05
                          CHANNELS 6 Xposition Yposition Zposition Zrotation Xrotation Yrotation
                          JOINT RightHandMiddle3
                          {
                            OFFSET 0.00139248 -3.30093 -0.00039013
                            CHANNELS 6 Xposition Yposition Zposition Zrotation Xrotation Yrotation
                            End Site
                            {
                              OFFSET 0.00311023 -2.69895 -0.00104383
                            }
                          }
                        }
                      }
                    }
                    JOINT RightHandRing
                    {
                      OFFSET 0.49965 -2.14978 -0.800919
                      CHANNELS 6 Xposition Yposition Zposition Zrotation Xrotation Yrotation
                      JOINT RightHandRing1
                      {
                        OFFSET 0 -7.75021 -0.200037
                        CHANNELS 6 Xposition Yposition Zposition Zrotation Xrotation Yrotation
                        JOINT RightHandRing2
                        {
                          OFFSET -0.00141508 -3.79806 0.00187341
                          CHANNELS 6 Xposition Yposition Zposition Zrotation Xrotation Yrotation
                          JOINT RightHandRing3
                          {
                            OFFSET -5.39211e-05 -3.40004 0
                            CHANNELS 6 Xposition Yposition Zposition Zrotation Xrotation Yrotation
                            End Site
                            {
                              OFFSET 0.00183869 -2.59899 0.000610328
                            }
                          }
                        }
                      }
                    }
                    JOINT RightHandPinky
                    {
                      OFFSET 0.749244 -1.74952 -1.84939
                      CHANNELS 6 Xposition Yposition Zposition Zrotation Xrotation Yrotation
                      JOINT RightHandPinky1
                      {
                        OFFSET -0.000906111 -7.14967 -1.00222
                        CHANNELS 6 Xposition Yposition Zposition Zrotation Xrotation Yrotation
                        JOINT RightHandPinky2
                        {
                          OFFSET 0.00421117 -2.99815 -0.00230144
                          CHANNELS 6 Xposition Yposition Zposition Zrotation Xrotation Yrotation
                          JOINT RightHandPinky3
                          {
                            OFFSET -0.000141382 -2.35052 0.000590279
                            CHANNELS 6 Xposition Yposition Zposition Zrotation Xrotation Yrotation
                            End Site
                            {
                              OFFSET 0.000218988 -2.10046 0.000105713
                            }
                          }
                        }
                      }
                    }
                  }
                }
              }
            }
          }
        }
      }
    }
  }
  JOINT LeftUpLeg
  {
    OFFSET 7.99996 0 -6.5354e-05
    CHANNELS 6 Xposition Yposition Zposition Zrotation Xrotation Yrotation
    JOINT LeftLeg
    {
      OFFSET -9.45053e-05 -45.0001 -0.999794
      CHANNELS 6 Xposition Yposition Zposition Zrotation Xrotation Yrotation
      JOINT LeftFoot
      {
        OFFSET -0.000438675 -41 -2.00048
        CHANNELS 6 Xposition Yposition Zposition Zrotation Xrotation Yrotation
        JOINT LeftToeBase
        {
          OFFSET 0 -7.5 12.4999
          CHANNELS 6 Xposition Yposition Zposition Zrotation Xrotation Yrotation
          JOINT LeftFootToe
          {
            OFFSET 0 0 4
            CHANNELS 6 Xposition Yposition Zposition Zrotation Xrotation Yrotation
            End Site
            {
              OFFSET 0 0 0
            }
          }
        }
      }
    }
  }
  JOINT RightUpLeg
  {
    OFFSET -7.99996 0 6.5354e-05
    CHANNELS 6 Xposition Yposition Zposition Zrotation Xrotation Yrotation
    JOINT RightLeg
    {
      OFFSET 0.000157963 -45 -0.999553
      CHANNELS 6 Xposition Yposition Zposition Zrotation Xrotation Yrotation
      JOINT RightFoot
      {
        OFFSET -0.000395977 -41.0001 -1.99965
        CHANNELS 6 Xposition Yposition Zposition Zrotation Xrotation Yrotation
        JOINT RightToeBase
        {
          OFFSET 0.000436974 -7.49998 12.4997
          CHANNELS 6 Xposition Yposition Zposition Zrotation Xrotation Yrotation
          JOINT RightFootToe
          {
            OFFSET 0 0 4
            CHANNELS 6 Xposition Yposition Zposition Zrotation Xrotation Yrotation
            End Site
            {
              OFFSET 0 0 0
            }
          }
        }
      }
    }
  }
}
MOTION
Frames:	3
Frame Time:	0.0166667
-601.044 92.6138 1097.97 -1.95693 -1.92701 -136.936 -2.27374e-13 8 -5.68434e-14 -5.63137 6.45721 6.54346 0 8 -1.13687e-13 -0.353055 2.58589 1.47977 0 8 0 -0.168148 1.2943 0.737861 2.27374e-13 8 -1.13687e-13 -0.168079 1.29384 0.73762 0 17 -1.7053e-13 -0.609675 0.15179 15.4488 0 10.8 5.68434e-14 1.11815 -6.61968 36.6299 5 17 5.68434e-14 -5.63697 1.29831 -3.93288 6.45 -5.68434e-14 -1.7053e-13 -0.771407 1.02449 -0.8738 6.45 -5.68434e-14 5.68434e-14 45.296 -15.9443 77.5614 1.13687e-13 -32.4 -2 -64.9761 -17.8995 -25.1125 -2.27374e-13 -25.65 2 24.0137 50.0344 -1.4064 -0.5 -1.5 2.65 8.86408 -72.0091 19.224 0 -3.8 3.7 27.2135 40.5136 -2.45906 2.27374e-13 -3 2.7 -0.0436909 1.05701 0.0185852 0 -1.9 1.6 2.01583e-07 -1.47289e-06 -5.20715e-06 2.27374e-13 -8.3 1.9 -12.7898 25.6434 3.52083 0 -4.5 -1.13687e-13 -29.6371 -8.18998 0.33362 1.13687e-13 -3.4 -1.13687e-13 -23.0958 -0.0823671 0.0904665 -0.25 -2.2 0.4 2.01583e-07 -1.47289e-06 -5.20715e-06 0 -8.3 1 -63.1481 22.1476 17.9843 0 -4.65 5.68434e-14 -50.0702 45.9258 -10.0133 0 -3.3 -1.13687e-13 -90.0002 0.010325 -0.00571738 -0.5 -2.15 -0.8 2.01583e-07 -1.47289e-06 -5.20715e-06 2.27374e-13 -7.75 -0.2 -37.2967 23.2708 10.053 -1.13687e-13 -3.8 -1.13687e-13 -5.89054 18.752 -7.84129 0 -3.4 -1.13687e-13 -34.9882 0.00630999 -0.00894682 -0.75 -1.75 -1.85 2.01583e-07 -1.47289e-06 -5.20715e-06 -2.27374e-13 -7.15 -1 -50.1932 8.34633 7.07805 0 -3 0 -8.78173 -2.48865 0.0242572 5.68434e-14 -2.35 1.13687e-13 -7.68224 0.0285928 0.00573577 -5 17 -1.7053e-13 7.54682 5.60438 4.15304 -6.45 -5.68434e-14 1.13687e-13 -1.68178 -0.590157 -2.91708 -6.45 -2.84217e-14 -5.68434e-14 -29.3972 35.0799 -13.4825 2.27374e-13 -32.4 -2 34.3187 -44.0489 28.2351 2.27374e-13 -25.65 2 -30.8732 -30.3052 0.693177 0.5 -1.5 2.65 37.8661 35.7615 -140.9 0 -3.8 3.7 0.621773 7.04452 -0.100198 0 -3 2.7 0.154488 48.654 -0.146625 0 -1.9 1.6 -4.69152e-06 6.47977e-06 -2.56683e-06 -1.13687e-13 -8.3 1.9 0.406126 -5.23616 0.00660637 0 -4.5 -1.13687e-13 5.02206 1.02294 0.0277829 -2.27374e-13 -3.4 1.7053e-13 4.87222 0.00757986 0.0195747 0.25 -2.2 0.4 -4.69152e-06 6.47977e-06 -2.56683e-06 -1.13687e-13 -8.3 1 1.29502 9.38788 -0.208077 1.13687e-13 -4.65 0 51.101 40.1446 6.80637 2.27374e-13 -3.3 5.68434e-14 51.5221 0.00092747 0.00922495 0.5 -2.15 -0.8 -4.69152e-06 6.47977e-06 -2.56683e-06 3.41061e-13 -7.75 -0.2 0.419081 5.39915 -0.0715704 -3.41061e-13 -3.8 -5.68434e-14 50.9867 23.7081 1.57045 0 -3.4 1.7053e-13 40.8293 -0.0162395 0.0164366 0.75 -1.75 -1.85 -4.69152e-06 6.47977e-06 -2.56683e-06 0 -7.15 -1 2.52587 13.4873 -0.664103 0 -3 5.68434e-14 41.3075 23.9999 2.25503 0 -2.35 5.68434e-14 36.0178 0.026183 -0.035008 8 0 -1.7053e-13 4.94444 -3.46443 7.45635 0 -45 -1 -6.06115 2.49089 1.85702 0 -41 -2 -1.09107 1.8775 -16.7821 0 -7.5 12.5 5.71136e-07 -0.00798189 -6.79088e-07 0 0 4 4.78021 5.73458 29.0743 -8 7.10543e-15 0 -15.0922 5.13624 -65.128 5.68434e-14 -45 -1 3.85114 -3.23256 -0.791575 1.13687e-13 -41 -2 4.80417 10.5554 -25.7112 0 -7.5 12.5 2.81908e-07 -2.58218e-07 -0.00677423 -1.7053e-13 0 4 -4.41702 -5.81453 112.859 
-601.647 92.6929 1098.31 -1.9078 -1.87786 -137.321 0 8 -5.68434e-14 -5.8181 6.68946 6.69288 -2.27374e-13 8 -1.7053e-13 -0.382926 2.70891 1.54656 0 8 1.13687e-13 -0.182299 1.356 0.770964 2.27374e-13 8 0 -0.181239 1.35655 0.766786 0 17 5.68434e-14 -0.552807 -0.189263 15.481 0 10.8 1.7053e-13 1.16742 -6.62332 36.72 5 17 1.13687e-13 -5.50313 0.944366 -3.91265 6.45 5.68434e-14 5.68434e-14 -0.733372 1.02449 -0.8738 6.45 1.13687e-13 -5.68434e-14 45.2757 -15.8633 77.7501 -1.13687e-13 -32.4 -2 -64.9537 -17.8023 -25.1122 0 -25.65 2 23.9979 49.8819 -1.30349 -0.5 -1.5 2.65 9.26441 -71.9078 19.5978 0 -3.8 3.7 27.2135 40.5136 -2.45906 2.27374e-13 -3 2.7 -0.0438658 1.59599 0.0185892 0 -1.9 1.6 2.01583e-07 -1.47289e-06 -5.20715e-06 0 -8.3 1.9 -11.2556 24.3332 2.97815 0 -4.5 0 -24.2363 -6.4864 0.23819 0 -3.4 0 -19.4458 -0.0522571 0.0760995 -0.25 -2.2 0.4 2.01583e-07 -1.47289e-06 -5.20715e-06 0 -8.3 1 -63.1182 22.2949 18.0913 0 -4.65 -5.68434e-14 -50.0104 46.1804 -10.181 0 -3.3 0 -90.0002 0.010325 -0.00571738 -0.5 -2.15 -0.8 2.01583e-07 -1.47289e-06 -5.20715e-06 0 -7.75 -0.2 -39.0291 23.3513 10.6147 -1.13687e-13 -3.8 0 -5.90561 17.6089 -6.75099 0 -3.4 -2.27374e-13 -32.5249 0.00630999 -0.00894682 -0.75 -1.75 -1.85 2.01583e-07 -1.47289e-06 -5.20715e-06 0 -7.15 -1 -53.102 8.07568 7.56466 0 -3 0 -5.06467 -1.43229 0.0176327 0 -2.35 1.13687e-13 -4.52711 0.0187025 0.00806145 -5 17 0 7.54802 5.34617 4.27663 -6.45 0 5.68434e-14 -1.68149 -0.583254 -2.92278 -6.45 -5.68434e-14 -5.68434e-14 -29.4562 34.9626 -13.3255 1.13687e-13 -32.4 -2 34.7309 -44.2708 28.7045 2.27374e-13 -25.65 2 -30.5489 -30.8021 0.962638 0.5 -1.5 2.65 38.2164 36.0115 -141.817 -1.13687e-13 -3.8 3.7 0.606752 6.44372 -0.11911 -2.27374e-13 -3 2.7 0.154488 48.654 -0.146625 2.27374e-13 -1.9 1.6 -4.69152e-06 6.47977e-06 -2.56683e-06 -3.41061e-13 -8.3 1.9 0.477137 -5.75742 0.00661216 1.13687e-13 -4.5 -5.68434e-14 5.81399 1.18585 0.0277845 -1.13687e-13 -3.4 5.68434e-14 5.56146 0.00757986 0.0202189 0.25 -2.2 0.4 -4.69152e-06 6.47977e-06 -2.56683e-06 1.13687e-13 -8.3 1 1.2086 8.91584 -0.189698 1.13687e-13 -4.65 0 51.1469 41.1556 7.25655 2.27374e-13 -3.3 0 52.4592 0.0329628 -0.018132 0.5 -2.15 -0.8 -4.69152e-06 6.47977e-06 -2.56683e-06 1.13687e-13 -7.75 -0.2 0.416956 5.22241 -0.0715499 -1.13687e-13 -3.8 0 50.8985 23.6077 1.56209 0 -3.4 -1.7053e-13 40.7207 0.0030854 0.00578679 0.75 -1.75 -1.85 -4.69152e-06 6.47977e-06 -2.56683e-06 1.13687e-13 -7.15 -1 2.5908 13.6481 -0.687517 0 -3 5.68434e-14 42.6932 25.8641 2.68449 2.27374e-13 -2.35 -5.68434e-14 37.6869 0.0185709 -0.017112 8 0 -1.7053e-13 4.44764 -3.25907 7.851 0 -45 -1 -5.68585 2.37059 1.79653 0 -41 -2 -0.899976 1.74824 -17.1341 0 -7.5 12.5 5.71136e-07 -0.00798189 -6.79088e-07 2.27374e-13 -2.77556e-17 4 4.45245 5.55513 29.1861 -8 1.42109e-14 -1.7053e-13 -14.9348 5.23758 -64.2535 5.68434e-14 -45 -1 3.94837 -3.30353 -0.811792 -1.13687e-13 -41 -2 4.61459 9.98651 -25.7982 -5.68434e-14 -7.5 12.5 2.81908e-07 -2.58218e-07 -0.00677423 -1.13687e-13 0 4 -4.56463 -5.12711 110.181 
-602.244 92.7564 1098.66 -1.92982 -1.89114 -137.715 0 8 -2.84217e-13 -6.0912 6.90504 6.85385 0 8 -1.13687e-13 -0.413227 2.82318 1.61329 0 8 0 -0.19664 1.41333 0.804038 2.27374e-13 8 0 -0.196554 1.41274 0.803721 0 17 0 -0.500447 -0.509335 15.5115 0 10.8 5.68434e-14 1.20523 -6.62371 36.8038 5 17 5.68434e-14 -5.38497 0.613321 -3.88074 6.45 -5.68434e-14 0 -0.708445 1.02449 -0.870346 6.45 1.13687e-13 0 45.2734 -15.7853 77.9026 1.13687e-13 -32.4 -2 -64.93 -17.7098 -25.1359 0 -25.65 2 23.9538 49.7401 -1.20075 -0.5 -1.5 2.65 9.71972 -71.8166 20.0278 -2.27374e-13 -3.8 3.7 27.2135 40.5136 -2.45906 1.13687e-13 -3 2.7 -0.0440263 2.09052 0.0185944 0 -1.9 1.6 2.01583e-07 -1.47289e-06 -5.20715e-06 0 -8.3 1.9 -9.83095 23.0262 2.48154 0 -4.5 -1.7053e-13 -19.2219 -4.94351 0.159476 0 -3.4 -1.13687e-13 -16.0058 -0.0296797 0.0648774 -0.25 -2.2 0.4 2.01583e-07 -1.47289e-06 -5.20715e-06 0 -8.3 1 -62.9407 22.5804 18.2258 -1.13687e-13 -4.65 1.13687e-13 -49.7767 46.9946 -10.7297 0 -3.3 0 -90.0002 0.010325 -0.00571738 -0.5 -2.15 -0.8 2.01583e-07 -1.47289e-06 -5.20715e-06 0 -7.75 -0.2 -40.4472 23.4653 11.0946 -2.27374e-13 -3.8 0 -5.87289 16.5779 -5.8092 0 -3.4 -1.13687e-13 -30.358 0.00630999 -0.00894682 -0.75 -1.75 -1.85 2.01583e-07 -1.47289e-06 -5.20715e-06 -2.27374e-13 -7.15 -1 -55.6078 7.81279 7.96894 -1.13687e-13 -3 0 -1.97377 -0.554513 0.0136674 0 -2.35 1.13687e-13 -1.86965 0.00973095 0.010737 -5 17 5.68434e-14 7.55252 5.10524 4.40051 -6.45 -5.68434e-14 0 -1.68092 -0.575222 -2.90705 -6.45 -2.84217e-14 0 -29.4929 34.8624 -13.2014 -1.13687e-13 -32.4 -2 35.1372 -44.4948 29.1731 4.54747e-13 -25.65 2 -30.2564 -31.3012 1.19061 0.5 -1.5 2.65 38.5947 36.2784 -142.698 0 -3.8 3.7 0.591943 5.84013 -0.13804 0 -3 2.7 0.154488 48.654 -0.146625 2.27374e-13 -1.9 1.6 -4.69152e-06 6.47977e-06 -2.56683e-06 -1.13687e-13 -8.3 1.9 0.530746 -6.14345 0.0066168 1.13687e-13 -4.5 5.68434e-14 6.74891 1.37834 0.0277866 0 -3.4 -1.13687e-13 6.36359 0.00757986 0.0195632 0.25 -2.2 0.4 -4.69152e-06 6.47977e-06 -2.56683e-06 0 -8.3 1 1.13244 8.45562 -0.173281 1.13687e-13 -4.65 -5.68434e-14 51.105 42.5914 7.95497 0 -3.3 5.68434e-14 53.734 0.056526 -0.0407764 0.5 -2.15 -0.8 -4.69152e-06 6.47977e-06 -2.56683e-06 2.27374e-13 -7.75 -0.2 0.418573 5.0317 -0.0715285 -2.27374e-13 -3.8 5.68434e-14 51.037 23.7893 1.59473 0 -3.4 5.68434e-14 40.8939 0.0195743 -0.00262391 0.75 -1.75 -1.85 -4.69152e-06 6.47977e-06 -2.56683e-06 2.27374e-13 -7.15 -1 2.64974 13.7935 -0.708197 0 -3 1.13687e-13 43.768 27.3406 3.03612 -2.27374e-13 -2.35 -5.68434e-14 39.0108 0.0112593 -0.0024956 8 7.10543e-15 -2.84217e-13 3.85243 -3.05934 8.23252 0 -45 -1 -5.29965 2.2324 1.7355 -2.27374e-13 -41 -2 -0.723461 1.63791 -17.5395 -2.27374e-13 -7.5 12.5 5.71136e-07 -0.00798189 -6.79088e-07 0 -2.77556e-17 4 4.16176 5.38179 29.1787 -8 7.10543e-15 -1.7053e-13 -14.8575 5.33247 -63.4073 5.68434e-14 -45 -1 4.05038 -3.38278 -0.822029 0 -41 -2 4.44161 9.47851 -25.8436 5.68434e-14 -7.5 12.5 2.81908e-07 -2.58218e-07 -0.00677423 -1.13687e-13 0 4 -4.73139 -4.52967 107.333 
